# xmcd CD database file
#
# Track frame offsets:
#	150
#	28015
#	77954
#	99601
#	129365
#	160479
#	184118
#	200562
#	230524
#	248115
#	266677
#	320638
#
# Disc length: 4506 seconds
#
# Revision: 0
# Processed by: cddbd v1.5.2PL0 Copyright (c) Steve Scherf et al.
# Submitted via: CDex 1.51
#
DISCID=a811980c
DTITLE=Red Garland Trio - Halleloo-Y'-All and When There Are Grey Skyes
DYEAR=1900
DGENRE=Jazz
TTITLE0=Revelation Blues
TTITLE1=I'll Never Be Free
TTITLE2=Everytime I Feel The Spirit
TTITLE3=Halleloo-Y'-All
TTITLE4=Back Slidin'
TTITLE5=Sonny Boy
TTITLE6=My Honey's Loving Arms
TTITLE7=St. James Infirmary
TTITLE8=I Ain't Got Nobody
TTITLE9=Baby, Won't You Please Come Home?
TTITLE10=Nobody Knows The Trouble I've Seen
TTITLE11=My Blue Heaven
EXTD=
EXTT0=
EXTT1=
EXTT2=
EXTT3=
EXTT4=
EXTT5=
EXTT6=
EXTT7=
EXTT8=
EXTT9=
EXTT10=
EXTT11=
PLAYORDER=
